# xmcd CD database file
#
# Track frame offsets:
#	150
#	12340
#	25402
#	39280
#	50927
#	61052
#	70090
#	81702
#	100572
#	110660
#	121990
#	131042
#	146080
#	160580
#	180365
#	190875
#	206922
#	222522
#
# Disc length: 3185 seconds
#
# Revision: 6
# Processed by: cddbd v1.5.2PL0 Copyright (c) Steve Scherf et al.
# Submitted via: CDex 1.72
#
DISCID=0a0c6f12
DTITLE=Lovett, Lyle (USA-94-I Love Everybody-cty) - I Love Everybody
DYEAR=1994
DGENRE=Country
TTITLE0=Skinny Legs
TTITLE1=Fat Babies
TTITLE2=I Think You Know What I Mean
TTITLE3=Hello Grandma
TTITLE4=Creeps Like Me
TTITLE5=Sonja
TTITLE6=They Don't Like Me
TTITLE7=Record Lady
TTITLE8=Ain't It Somethin'
TTITLE9=Penguins
TTITLE10=The Fat Girl
TTITLE11=La to the Left
TTITLE12=Old Friend
TTITLE13=Just the Morning
TTITLE14=Moon on My Shoulder
TTITLE15=I've Got the Blues
TTITLE16=Good-bye to Carolina
TTITLE17=I Love Everybody
EXTD=YEAR: 1994
EXTT0=
EXTT1=
EXTT2=
EXTT3=
EXTT4=
EXTT5=
EXTT6=
EXTT7=
EXTT8=
EXTT9=
EXTT10=
EXTT11=
EXTT12=
EXTT13=
EXTT14=
EXTT15=
EXTT16=
EXTT17=
PLAYORDER=
